<svg width="50" height="50" viewBox="0 0 50 50" fill="none" xmlns="http://www.w3.org/2000/svg">
<g clip-path="url(#clip0_95_159)">
<path d="M39.895 0.00317383H10.0987C4.51816 0.00317383 0 4.52134 0 10.1019V39.9044C0 45.4788 4.51816 49.9969 10.0987 49.9969H39.9013C45.4756 49.9969 50 45.4788 50 39.8982V10.1019C49.9938 4.52134 45.4756 0.00317383 39.895 0.00317383Z" fill="url(#paint0_linear_95_159)"/>
<path d="M24.7843 11.4892L25.7967 9.73941C26.4216 8.64575 27.8151 8.2771 28.9088 8.902C30.0024 9.52691 30.3711 10.9205 29.7462 12.0141L19.9911 28.8996H27.0465C29.3337 28.8996 30.6147 31.5868 29.6212 33.449H8.93633C7.67402 33.449 6.66162 32.4366 6.66162 31.1743C6.66162 29.912 7.67402 28.8996 8.93633 28.8996H14.7356L22.1598 16.0324L19.8413 12.0079C19.2164 10.9142 19.5851 9.53316 20.6787 8.89575C21.7724 8.27085 23.1534 8.6395 23.7908 9.73316L24.7843 11.4892Z" fill="white"/>
<path d="M16.0105 35.7924L13.8233 39.5856C13.1984 40.6793 11.8048 41.0479 10.7112 40.423C9.61753 39.7981 9.24888 38.4046 9.87378 37.3109L11.4986 34.4988C13.3358 33.9302 14.8293 34.3676 16.0105 35.7924Z" fill="white"/>
<path d="M34.8456 28.9121H40.7636C42.0259 28.9121 43.0383 29.9245 43.0383 31.1868C43.0383 32.4491 42.0259 33.4615 40.7636 33.4615H37.4765L39.6949 37.311C40.3198 38.4047 39.9512 39.7857 38.8575 40.4231C37.7639 41.048 36.3828 40.6794 35.7454 39.5857C32.0084 33.1053 29.2024 28.256 27.3402 25.0251C25.4342 21.738 26.7966 18.4384 28.1401 17.3198C29.6338 19.882 31.8647 23.7503 34.8456 28.9121Z" fill="white"/>
</g>
<defs>
<linearGradient id="paint0_linear_95_159" x1="25" y1="0.00317383" x2="25" y2="49.9969" gradientUnits="userSpaceOnUse">
<stop stop-color="#00BFFC"/>
<stop offset="1" stop-color="#0073F6"/>
</linearGradient>
<clipPath id="clip0_95_159">
<rect width="50" height="50" fill="white"/>
</clipPath>
</defs>
</svg>
