<svg xmlns="http://www.w3.org/2000/svg" xmlns:xlink="http://www.w3.org/1999/xlink" width="60" zoomAndPan="magnify" viewBox="0 0 45 44.999999" height="60" preserveAspectRatio="xMidYMid meet" version="1.0"><path fill="#f0c808" d="M 12.976562 5.742188 C 12.761719 5.5625 12.53125 5.414062 12.28125 5.300781 C 14.855469 5.707031 16.992188 7.425781 17.988281 9.75 C 17.988281 9.75 14.953125 9.75 14.953125 9.75 C 14.789062 8.925781 14.550781 8.15625 14.242188 7.488281 C 13.90625 6.773438 13.488281 6.167969 12.976562 5.742188 Z M 12.976562 5.742188 " fill-opacity="1" fill-rule="nonzero"/><path fill="#f0c808" d="M 11.3125 9.75 C 11.3125 9.75 11.3125 5.363281 11.3125 5.363281 C 11.566406 5.375 11.808594 5.429688 12.035156 5.515625 C 12.507812 5.695312 12.921875 6.027344 13.285156 6.476562 C 13.832031 7.152344 14.246094 8.097656 14.523438 9.175781 C 14.574219 9.363281 14.617188 9.554688 14.65625 9.75 C 14.65625 9.75 11.3125 9.75 11.3125 9.75 Z M 11.3125 9.75 " fill-opacity="1" fill-rule="nonzero"/><path fill="#f0c808" d="M 8.980469 18.902344 C 8.4375 18.253906 8.019531 17.351562 7.734375 16.320312 C 7.734375 16.320312 11.023438 16.320312 11.023438 16.320312 C 11.023438 16.320312 11.023438 20.019531 11.023438 20.019531 C 10.757812 20.007812 10.507812 19.953125 10.269531 19.867188 C 9.785156 19.683594 9.351562 19.351562 8.980469 18.902344 Z M 8.980469 18.902344 " fill-opacity="1" fill-rule="nonzero"/><path fill="#f0c808" d="M 9.308594 19.640625 C 9.542969 19.832031 9.796875 19.984375 10.066406 20.097656 C 7.699219 19.769531 5.683594 18.328125 4.570312 16.320312 C 4.570312 16.320312 7.433594 16.320312 7.433594 16.320312 C 7.585938 16.886719 7.773438 17.417969 8.003906 17.894531 C 8.347656 18.609375 8.78125 19.214844 9.308594 19.640625 Z M 9.308594 19.640625 " fill-opacity="1" fill-rule="nonzero"/><path fill="#f0c808" d="M 7.273438 12.691406 C 7.273438 11.789062 7.351562 10.886719 7.507812 10.042969 C 7.507812 10.042969 11.023438 10.042969 11.023438 10.042969 C 11.023438 10.042969 11.023438 16.03125 11.023438 16.03125 C 11.023438 16.03125 7.660156 16.03125 7.660156 16.03125 C 7.402344 14.992188 7.273438 13.84375 7.273438 12.691406 Z M 7.273438 12.691406 " fill-opacity="1" fill-rule="nonzero"/><path fill="#f0c808" d="M 6.980469 12.691406 C 6.980469 13.839844 7.105469 14.984375 7.359375 16.03125 C 7.359375 16.03125 4.488281 16.03125 4.488281 16.03125 C 4.464844 16.03125 4.445312 16.035156 4.421875 16.046875 C 3.914062 15.039062 3.628906 13.898438 3.628906 12.691406 C 3.628906 11.753906 3.800781 10.855469 4.117188 10.03125 C 4.132812 10.039062 4.152344 10.042969 4.167969 10.042969 C 4.167969 10.042969 7.210938 10.042969 7.210938 10.042969 C 7.058594 10.890625 6.980469 11.789062 6.980469 12.691406 Z M 6.980469 12.691406 " fill-opacity="1" fill-rule="nonzero"/><path fill="#f0c808" d="M 10.066406 5.28125 C 9.566406 5.492188 9.128906 5.839844 8.753906 6.292969 C 8.15625 7.015625 7.714844 7.996094 7.421875 9.105469 C 7.363281 9.316406 7.3125 9.53125 7.269531 9.75 C 7.269531 9.75 4.230469 9.75 4.230469 9.75 C 5.242188 7.386719 7.433594 5.648438 10.066406 5.28125 Z M 10.066406 5.28125 " fill-opacity="1" fill-rule="nonzero"/><path fill="#f0c808" d="M 10.269531 5.515625 C 10.507812 5.429688 10.757812 5.375 11.023438 5.359375 C 11.023438 5.359375 11.023438 9.75 11.023438 9.75 C 11.023438 9.75 7.566406 9.75 7.566406 9.75 C 7.730469 8.96875 7.964844 8.238281 8.269531 7.613281 C 8.597656 6.925781 9.007812 6.359375 9.492188 5.96875 C 9.734375 5.773438 9.992188 5.621094 10.269531 5.515625 Z M 10.269531 5.515625 " fill-opacity="1" fill-rule="nonzero"/><path fill="#f0c808" d="M 12.789062 19.414062 C 12.554688 19.609375 12.304688 19.761719 12.035156 19.867188 C 11.808594 19.953125 11.566406 20.003906 11.3125 20.019531 C 11.3125 20.019531 11.3125 16.320312 11.3125 16.320312 C 11.3125 16.320312 14.492188 16.320312 14.492188 16.320312 C 14.351562 16.84375 14.179688 17.332031 13.976562 17.769531 C 13.65625 18.457031 13.257812 19.023438 12.789062 19.414062 Z M 12.789062 19.414062 " fill-opacity="1" fill-rule="nonzero"/><path fill="#f0c808" d="M 17.648438 16.320312 C 16.554688 18.292969 14.59375 19.714844 12.28125 20.078125 C 12.75 19.867188 13.160156 19.523438 13.511719 19.085938 C 14.085938 18.375 14.511719 17.414062 14.796875 16.320312 C 14.796875 16.320312 17.648438 16.320312 17.648438 16.320312 Z M 17.648438 16.320312 " fill-opacity="1" fill-rule="nonzero"/><path fill="#f0c808" d="M 11.3125 10.042969 C 11.3125 10.042969 14.714844 10.042969 14.714844 10.042969 C 14.867188 10.886719 14.941406 11.789062 14.941406 12.691406 C 14.941406 13.84375 14.816406 14.992188 14.566406 16.03125 C 14.566406 16.03125 11.3125 16.03125 11.3125 16.03125 C 11.3125 16.03125 11.3125 10.042969 11.3125 10.042969 Z M 11.3125 10.042969 " fill-opacity="1" fill-rule="nonzero"/><path fill="#f0c808" d="M 18.589844 12.691406 C 18.589844 13.898438 18.300781 15.039062 17.792969 16.046875 C 17.773438 16.035156 17.753906 16.03125 17.726562 16.03125 C 17.726562 16.03125 14.867188 16.03125 14.867188 16.03125 C 15.113281 14.984375 15.234375 13.839844 15.234375 12.691406 C 15.234375 11.789062 15.160156 10.890625 15.007812 10.042969 C 15.007812 10.042969 18.046875 10.042969 18.046875 10.042969 C 18.066406 10.042969 18.085938 10.039062 18.101562 10.03125 C 18.417969 10.855469 18.589844 11.753906 18.589844 12.691406 Z M 18.589844 12.691406 " fill-opacity="1" fill-rule="nonzero"/><path fill="#2a245e" d="M 35.78125 33.273438 C 35.78125 34.917969 37.035156 36.25 38.578125 36.25 C 40.121094 36.25 41.375 34.917969 41.375 33.273438 C 41.375 31.628906 40.121094 30.292969 38.578125 30.292969 C 37.035156 30.292969 35.78125 31.628906 35.78125 33.273438 Z M 35.78125 33.273438 " fill-opacity="1" fill-rule="nonzero"/><path fill="#02c1c2" d="M 36.171875 33.878906 C 37.648438 33.769531 38.960938 33.417969 39.964844 32.601562 C 40.550781 32.121094 41.03125 31.484375 41.375 30.640625 C 40.296875 27.949219 38.625 25.660156 36.84375 23.441406 C 35.824219 22.480469 34.402344 22.21875 33.191406 22.582031 C 31.621094 23.050781 30.40625 24.578125 30.898438 26.992188 C 32.035156 29.304688 33.757812 31.601562 36.171875 33.878906 Z M 36.171875 33.878906 " fill-opacity="1" fill-rule="nonzero"/><path fill="#35cdce" d="M 39.964844 32.601562 C 40.550781 32.121094 41.03125 31.484375 41.375 30.640625 C 40.296875 27.949219 38.625 25.660156 36.84375 23.441406 C 35.824219 22.480469 34.402344 22.21875 33.191406 22.582031 C 35.5625 24.648438 37.824219 27.960938 39.964844 32.601562 Z M 39.964844 32.601562 " fill-opacity="1" fill-rule="nonzero"/><path fill="#35cdce" d="M 35.515625 22.804688 C 36.609375 31.402344 35.339844 36.867188 29.117188 37.964844 C 28.921875 38 28.71875 38.027344 28.511719 38.054688 C 27.976562 38.082031 27.472656 38.070312 26.996094 38.027344 C 21.132812 37.488281 19.730469 31.832031 19.425781 24.914062 C 19.425781 24.914062 20.714844 24.742188 20.714844 24.742188 C 20.714844 24.742188 25.550781 24.109375 25.550781 24.109375 C 25.550781 24.109375 30.707031 23.433594 30.707031 23.433594 C 30.707031 23.433594 30.710938 23.433594 30.710938 23.433594 C 30.710938 23.433594 34.78125 22.898438 34.78125 22.898438 C 34.78125 22.898438 35.515625 22.804688 35.515625 22.804688 Z M 35.515625 22.804688 " fill-opacity="1" fill-rule="nonzero"/><path fill="#02c1c2" d="M 34.78125 22.898438 C 35.457031 30.808594 34.1875 35.824219 29.03125 36.875 C 28.863281 36.910156 28.6875 36.9375 28.507812 36.964844 C 28.042969 36.992188 27.605469 36.980469 27.191406 36.9375 C 22.324219 36.429688 21.019531 31.242188 20.714844 24.742188 C 20.714844 24.742188 25.550781 24.109375 25.550781 24.109375 C 25.550781 24.109375 30.707031 23.433594 30.707031 23.433594 C 30.707031 23.433594 30.710938 23.433594 30.710938 23.433594 C 30.710938 23.433594 34.78125 22.898438 34.78125 22.898438 Z M 34.78125 22.898438 " fill-opacity="1" fill-rule="nonzero"/><path fill="#2a245e" d="M 32.722656 25.953125 C 32.722656 25.953125 34.214844 25.695312 34.214844 25.695312 C 34.402344 25.664062 34.570312 25.792969 34.566406 25.964844 C 34.566406 25.964844 34.453125 28.933594 34.453125 28.933594 C 34.449219 29.050781 34.359375 29.15625 34.230469 29.191406 C 33.734375 29.316406 33.226562 29.355469 32.710938 29.328125 C 32.550781 29.320312 32.429688 29.203125 32.429688 29.0625 C 32.429688 29.0625 32.472656 26.222656 32.472656 26.222656 C 32.472656 26.09375 32.578125 25.976562 32.722656 25.953125 Z M 32.722656 25.953125 " fill-opacity="1" fill-rule="nonzero"/><path fill="#02c1c2" d="M 32.78125 26.433594 C 32.78125 26.433594 32.796875 26.808594 32.796875 26.808594 C 32.800781 26.871094 32.859375 26.914062 32.929688 26.90625 C 32.929688 26.90625 34.097656 26.730469 34.097656 26.730469 C 34.152344 26.71875 34.195312 26.679688 34.195312 26.628906 C 34.195312 26.628906 34.214844 26.199219 34.214844 26.199219 C 34.214844 26.132812 34.148438 26.085938 34.078125 26.097656 C 34.078125 26.097656 32.875 26.324219 32.875 26.324219 C 32.816406 26.335938 32.777344 26.378906 32.78125 26.433594 Z M 32.78125 26.433594 " fill-opacity="1" fill-rule="nonzero"/><path fill="#f0c808" d="M 32.804688 27.359375 C 32.804688 27.359375 32.792969 27.730469 32.792969 27.730469 C 32.789062 27.789062 32.839844 27.835938 32.90625 27.835938 C 32.90625 27.835938 34.046875 27.800781 34.046875 27.800781 C 34.105469 27.796875 34.15625 27.757812 34.160156 27.703125 C 34.160156 27.703125 34.21875 27.15625 34.21875 27.15625 C 34.222656 27.089844 34.15625 27.035156 34.082031 27.050781 C 34.082031 27.050781 32.902344 27.257812 32.902344 27.257812 C 32.847656 27.269531 32.808594 27.3125 32.804688 27.359375 Z M 32.804688 27.359375 " fill-opacity="1" fill-rule="nonzero"/><path fill="#f0c808" d="M 32.765625 28.382812 C 32.765625 28.382812 32.75 28.8125 32.75 28.8125 C 32.746094 28.871094 32.800781 28.917969 32.867188 28.917969 C 32.867188 28.917969 34.054688 28.859375 34.054688 28.859375 C 34.113281 28.855469 34.164062 28.8125 34.164062 28.757812 C 34.164062 28.757812 34.183594 28.289062 34.183594 28.289062 C 34.183594 28.230469 34.128906 28.179688 34.058594 28.1875 C 34.058594 28.1875 32.875 28.28125 32.875 28.28125 C 32.816406 28.285156 32.769531 28.328125 32.765625 28.382812 Z M 32.765625 28.382812 " fill-opacity="1" fill-rule="nonzero"/><path fill="#2a245e" d="M 19.75 25.339844 C 22.203125 26.402344 33.363281 24.902344 35.347656 23.253906 C 35.65625 22.996094 35.542969 22.539062 35.148438 22.429688 C 32.554688 21.707031 22.042969 22.835938 19.675781 24.417969 C 19.308594 24.664062 19.351562 25.164062 19.75 25.339844 Z M 19.75 25.339844 " fill-opacity="1" fill-rule="nonzero"/><path fill="#02c1c2" d="M 31.023438 39.96875 C 30.988281 40.019531 30.9375 40.058594 30.878906 40.082031 C 30.238281 40.355469 29.605469 40.542969 28.972656 40.644531 C 27.539062 40.878906 26.125 40.675781 24.722656 40.054688 C 24.65625 40.023438 24.597656 39.976562 24.5625 39.914062 C 24.363281 39.574219 24.308594 39.246094 24.386719 38.921875 C 24.429688 38.738281 24.625 38.628906 24.820312 38.675781 C 26.308594 39.035156 27.792969 39.128906 29.277344 38.921875 C 29.800781 38.847656 30.328125 38.734375 30.851562 38.585938 C 31.070312 38.523438 31.296875 38.671875 31.3125 38.886719 C 31.339844 39.296875 31.253906 39.660156 31.023438 39.96875 Z M 31.023438 39.96875 " fill-opacity="1" fill-rule="nonzero"/><path fill="#35cdce" d="M 31.023438 39.96875 C 30.988281 40.019531 30.9375 40.058594 30.878906 40.082031 C 30.238281 40.355469 29.605469 40.542969 28.972656 40.644531 C 29.601562 40.191406 29.769531 39.632812 29.277344 38.921875 C 29.800781 38.847656 30.328125 38.734375 30.851562 38.585938 C 31.070312 38.523438 31.296875 38.671875 31.3125 38.886719 C 31.339844 39.296875 31.253906 39.660156 31.023438 39.96875 Z M 31.023438 39.96875 " fill-opacity="1" fill-rule="nonzero"/><path fill="#02c1c2" d="M 30.324219 41.859375 C 30.308594 41.929688 30.285156 42 30.25 42.070312 C 30.164062 42.265625 29.984375 42.410156 29.765625 42.472656 C 29.464844 42.554688 29.15625 42.625 28.847656 42.679688 C 27.996094 42.828125 27.113281 42.867188 26.199219 42.804688 C 25.882812 42.785156 25.59375 42.621094 25.421875 42.367188 C 25.335938 42.238281 25.277344 42.113281 25.257812 41.996094 C 25.207031 41.722656 25.441406 41.484375 25.730469 41.496094 C 26.894531 41.558594 28.003906 41.550781 29.042969 41.445312 C 29.304688 41.417969 29.5625 41.386719 29.8125 41.347656 C 30.128906 41.296875 30.394531 41.566406 30.324219 41.859375 Z M 30.324219 41.859375 " fill-opacity="1" fill-rule="nonzero"/><path fill="#35cdce" d="M 30.324219 41.859375 C 30.308594 41.929688 30.285156 42 30.25 42.070312 C 30.164062 42.265625 29.984375 42.410156 29.765625 42.472656 C 29.464844 42.554688 29.15625 42.625 28.847656 42.679688 C 29.105469 42.328125 29.195312 41.925781 29.042969 41.445312 C 29.304688 41.417969 29.5625 41.386719 29.8125 41.347656 C 30.128906 41.296875 30.394531 41.566406 30.324219 41.859375 Z M 30.324219 41.859375 " fill-opacity="1" fill-rule="nonzero"/><path fill="#2a245e" d="M 27.367188 7.792969 C 27.316406 9.117188 26.980469 10.074219 26.507812 10.855469 C 26.507812 10.855469 28.15625 10.859375 28.15625 10.859375 C 27.59375 10.011719 27.542969 8.996094 27.894531 7.855469 C 27.894531 7.855469 27.367188 7.792969 27.367188 7.792969 Z M 27.367188 7.792969 " fill-opacity="1" fill-rule="nonzero"/><path fill="#02c1c2" d="M 29.019531 11.816406 C 29.019531 11.816406 28.132812 11.785156 28.132812 11.785156 C 28.132812 11.785156 25.285156 11.683594 25.285156 11.683594 C 25.507812 11.082031 26.03125 10.664062 27.320312 10.699219 C 27.523438 10.710938 27.714844 10.726562 27.890625 10.75 C 28.691406 10.847656 29.179688 11.082031 29.019531 11.816406 Z M 29.019531 11.816406 " fill-opacity="1" fill-rule="nonzero"/><path fill="#35cdce" d="M 29.019531 11.816406 C 29.019531 11.816406 28.132812 11.785156 28.132812 11.785156 C 28.324219 11.5 28.203125 11.144531 27.890625 10.75 C 28.691406 10.847656 29.179688 11.082031 29.019531 11.816406 Z M 29.019531 11.816406 " fill-opacity="1" fill-rule="nonzero"/><path fill="#f0c808" d="M 28.796875 7.253906 C 28.726562 7.835938 28.183594 8.246094 27.589844 8.175781 C 26.996094 8.105469 26.570312 7.582031 26.640625 7 C 26.710938 6.421875 27.25 6.011719 27.847656 6.082031 C 28.441406 6.148438 28.867188 6.675781 28.796875 7.253906 Z M 28.796875 7.253906 " fill-opacity="1" fill-rule="nonzero"/><path fill="#f3d339" d="M 28.796875 7.253906 C 28.726562 7.835938 28.183594 8.246094 27.589844 8.175781 C 27.503906 8.167969 27.421875 8.148438 27.339844 8.117188 C 27.828125 8.0625 28.230469 7.691406 28.289062 7.195312 C 28.351562 6.703125 28.050781 6.246094 27.589844 6.078125 C 27.671875 6.070312 27.757812 6.070312 27.847656 6.082031 C 28.441406 6.148438 28.867188 6.675781 28.796875 7.253906 Z M 28.796875 7.253906 " fill-opacity="1" fill-rule="nonzero"/><path fill="#02c1c2" d="M 34.265625 20.1875 C 34.253906 20.351562 34.175781 20.507812 34.046875 20.613281 C 32.910156 21.53125 31.515625 22.210938 29.992188 22.628906 C 26.59375 23.558594 22.554688 23.171875 19.324219 21.152344 C 18.996094 20.945312 18.832031 20.558594 18.921875 20.1875 C 19.738281 16.726562 19.953125 12.929688 24.882812 11.769531 C 25.972656 11.511719 27.101562 11.46875 28.199219 11.644531 C 28.636719 11.714844 29.070312 11.820312 29.496094 11.957031 C 32.796875 13.035156 34.570312 15.601562 34.265625 20.1875 Z M 34.265625 20.1875 " fill-opacity="1" fill-rule="nonzero"/><path fill="#35cdce" d="M 34.035156 20.621094 C 32.902344 21.535156 31.511719 22.214844 29.992188 22.628906 C 31.644531 19.777344 31.289062 14.402344 28.199219 11.644531 C 28.636719 11.714844 29.070312 11.820312 29.496094 11.957031 C 32.796875 13.035156 34.566406 15.597656 34.265625 20.175781 C 34.253906 20.347656 34.171875 20.507812 34.035156 20.621094 Z M 34.035156 20.621094 " fill-opacity="1" fill-rule="nonzero"/><path fill="#2a245e" d="M 27.441406 13.1875 C 23.257812 12.949219 21.652344 15.214844 20.886719 18.296875 C 20.367188 20.933594 22.984375 21.933594 25.804688 21.078125 C 26.59375 20.839844 27.4375 20.804688 28.238281 21.015625 C 30.648438 21.65625 32.691406 21.050781 32.449219 18.382812 C 32.476562 14.996094 30.40625 13.652344 27.441406 13.1875 Z M 27.441406 13.1875 " fill-opacity="1" fill-rule="nonzero"/><path fill="#f0c808" d="M 28.394531 18.050781 C 28.40625 18.675781 27.832031 19.191406 27.113281 19.203125 C 26.394531 19.21875 25.804688 18.722656 25.792969 18.097656 C 25.78125 17.476562 26.375 17.996094 27.09375 17.984375 C 27.8125 17.972656 28.386719 17.429688 28.394531 18.050781 Z M 28.394531 18.050781 " fill-opacity="1" fill-rule="nonzero"/><path fill="#f0c808" d="M 24.277344 18.128906 C 24.222656 18.613281 23.996094 18.980469 23.769531 18.957031 C 23.542969 18.929688 23.40625 18.519531 23.460938 18.039062 C 23.515625 17.558594 23.746094 17.1875 23.96875 17.210938 C 24.195312 17.238281 24.332031 17.648438 24.277344 18.128906 Z M 24.277344 18.128906 " fill-opacity="1" fill-rule="nonzero"/><path fill="#f0c808" d="M 29.484375 18.085938 C 29.539062 18.566406 29.765625 18.9375 29.992188 18.914062 C 30.21875 18.890625 30.355469 18.480469 30.300781 18 C 30.25 17.519531 30.023438 17.144531 29.796875 17.167969 C 29.570312 17.191406 29.429688 17.601562 29.484375 18.085938 Z M 29.484375 18.085938 " fill-opacity="1" fill-rule="nonzero"/><path fill="#f0c808" d="M 13.460938 23.230469 C 13.460938 23.230469 16.476562 31.351562 16.476562 31.351562 C 16.648438 31.816406 17.09375 32.121094 17.589844 32.113281 C 17.589844 32.113281 34.1875 31.894531 34.1875 31.894531 C 34.1875 31.894531 34.1875 30.636719 34.1875 30.636719 C 34.1875 30.636719 28.027344 30.859375 28.027344 30.859375 C 28.027344 30.859375 25.414062 22.753906 25.414062 22.753906 C 25.324219 22.480469 25.070312 22.292969 24.78125 22.292969 C 24.78125 22.292969 14.078125 22.324219 14.078125 22.324219 C 13.609375 22.328125 13.292969 22.796875 13.460938 23.230469 Z M 13.460938 23.230469 " fill-opacity="1" fill-rule="nonzero"/><path fill="#2a245e" d="M 20.578125 26.300781 C 20.363281 26.15625 19.964844 26.214844 19.773438 26.386719 C 19.578125 26.5625 19.515625 26.859375 19.613281 27.101562 C 19.710938 27.34375 19.960938 27.511719 20.21875 27.523438 C 20.496094 27.539062 20.785156 27.367188 20.859375 27.101562 C 20.9375 26.835938 20.851562 26.441406 20.578125 26.300781 Z M 20.578125 26.300781 " fill-opacity="1" fill-rule="nonzero"/><path fill="#2a245e" d="M 12.949219 26.273438 C 12.234375 27.273438 12.066406 28.453125 12.261719 29.753906 C 12.351562 30.367188 12.804688 30.835938 13.359375 30.890625 C 14.171875 30.976562 14.945312 30.960938 15.625 30.734375 C 15.738281 30.695312 15.847656 30.636719 15.949219 30.5625 C 16.828125 29.902344 17.257812 28.953125 17.039062 27.585938 C 17.007812 27.386719 17.011719 27.175781 17.058594 26.976562 C 17.175781 26.484375 17.074219 26.117188 16.820312 25.839844 C 16.609375 25.609375 16.324219 25.484375 16.03125 25.464844 C 15.210938 25.414062 14.394531 25.554688 13.578125 25.808594 C 13.332031 25.886719 13.109375 26.050781 12.949219 26.273438 Z M 12.949219 26.273438 " fill-opacity="1" fill-rule="nonzero"/><path fill="#02c1c2" d="M 27.953125 33.3125 C 28.003906 33.707031 28.234375 34.058594 28.5625 34.285156 C 31.375 36.207031 34.546875 37.257812 37.953125 37.742188 C 38.625 37.839844 39.273438 37.453125 39.492188 36.8125 C 39.777344 35.992188 39.945312 35.121094 39.929688 34.167969 C 39.917969 33.613281 39.84375 33.027344 39.695312 32.410156 C 39.621094 32.101562 39.441406 31.828125 39.195312 31.632812 C 36.390625 29.421875 33.332031 27.886719 29.917969 27.484375 C 29.242188 27.40625 28.605469 27.820312 28.398438 28.46875 C 28.332031 28.683594 28.269531 28.894531 28.214844 29.105469 C 27.820312 30.617188 27.773438 32.003906 27.953125 33.3125 Z M 27.953125 33.3125 " fill-opacity="1" fill-rule="nonzero"/><path fill="#35cdce" d="M 28.214844 29.105469 C 32.882812 29.980469 36.789062 31.664062 39.929688 34.167969 C 39.917969 33.613281 39.84375 33.027344 39.695312 32.410156 C 39.621094 32.101562 39.441406 31.828125 39.195312 31.632812 C 36.390625 29.421875 33.332031 27.886719 29.917969 27.484375 C 29.242188 27.40625 28.605469 27.820312 28.398438 28.46875 C 28.332031 28.683594 28.269531 28.894531 28.214844 29.105469 Z M 28.214844 29.105469 " fill-opacity="1" fill-rule="nonzero"/><path fill="#2a245e" d="M 30.148438 27.75 C 30.9375 28.851562 31.121094 30.15625 30.90625 31.59375 C 30.808594 32.269531 30.304688 32.785156 29.695312 32.851562 C 28.796875 32.945312 27.945312 32.925781 27.195312 32.675781 C 27.066406 32.632812 26.945312 32.566406 26.835938 32.484375 C 25.863281 31.757812 25.386719 30.710938 25.628906 29.199219 C 25.667969 28.976562 25.660156 28.746094 25.609375 28.527344 C 25.480469 27.984375 25.59375 27.578125 25.871094 27.269531 C 26.101562 27.015625 26.417969 26.878906 26.742188 26.859375 C 27.648438 26.800781 28.550781 26.957031 29.453125 27.234375 C 29.726562 27.320312 29.96875 27.503906 30.148438 27.75 Z M 30.148438 27.75 " fill-opacity="1" fill-rule="nonzero"/></svg>