<svg width="60" height="60" viewBox="0 0 60 60" fill="none" xmlns="http://www.w3.org/2000/svg">
<g clip-path="url(#clip0_95_137)">
<path d="M17.9982 18.5171H14.6848L23.718 44.0519L28.7751 29.6005L24.8543 18.5171H21.3584V16.084H36.8395V18.5171H33.2142L42.2473 44.0519L45.4943 34.7727C49.7538 22.8843 42.0032 19.1811 42.0032 16.5279C42.0032 13.8747 44.1541 11.724 46.8071 11.724C46.9506 11.724 47.09 11.7318 47.2266 11.7445C42.7312 7.50082 36.6696 4.89844 29.9997 4.89844C21.2844 4.89844 13.6075 9.34087 9.10718 16.084H17.9979V18.5171H17.9982Z" fill="#00769D"/>
<path d="M4.89844 30C4.89844 39.6102 10.3 47.9576 18.2318 52.1757L6.90387 20.1543C5.61347 23.1774 4.89844 26.5051 4.89844 30Z" fill="#00769D"/>
<path d="M51.8456 17.6306C52.2047 19.7447 52.096 22.1209 51.545 24.5063H51.6448L51.2653 25.5908C51.0404 26.3739 50.7572 27.175 50.4355 27.9622L41.7983 52.1594C49.7135 47.9362 55.1012 39.5978 55.1012 29.9998C55.1012 25.5022 53.9172 21.2816 51.8456 17.6306Z" fill="#00769D"/>
<path d="M22.2583 53.8829C24.6969 54.6728 27.2981 55.1013 29.9999 55.1013C32.577 55.1013 35.063 54.7124 37.4034 53.9909L30.0609 33.2354L22.2583 53.8829Z" fill="#00769D"/>
<path d="M51.2131 8.78675C45.5469 3.12053 38.0132 0 29.9999 0C21.9866 0 14.453 3.12053 8.78675 8.78675C3.12053 14.453 0 21.9866 0 30C0 38.0133 3.12053 45.5469 8.78675 51.2131C14.453 56.8793 21.9867 59.9999 30 59.9999C38.0133 59.9999 45.5469 56.8793 51.2132 51.2131C56.8795 45.5469 60 38.0132 60 30C59.9999 21.9866 56.8793 14.453 51.2131 8.78675ZM29.9999 57.8836C14.6248 57.8836 2.11627 45.3751 2.11627 30C2.11627 14.6249 14.6248 2.11627 29.9999 2.11627C45.3749 2.11627 57.8835 14.6249 57.8835 30C57.8835 45.3751 45.3751 57.8836 29.9999 57.8836Z" fill="#00769D"/>
</g>
<defs>
<clipPath id="clip0_95_137">
<rect width="60" height="60" fill="white"/>
</clipPath>
</defs>
</svg>
