<svg xmlns="http://www.w3.org/2000/svg" xmlns:xlink="http://www.w3.org/1999/xlink" width="155" zoomAndPan="magnify" viewBox="0 0 116.25 34.499999" height="46" preserveAspectRatio="xMidYMid meet" version="1.0"><defs><clipPath id="591174d54c"><path d="M 45.128906 6.152344 L 55.480469 6.152344 L 55.480469 16.503906 L 45.128906 16.503906 Z M 45.128906 6.152344 " clip-rule="nonzero"/></clipPath><clipPath id="3bc9395ac3"><path d="M 51 17 L 99 17 L 99 30 L 51 30 Z M 51 17 " clip-rule="nonzero"/></clipPath><clipPath id="d9211fbc1d"><path d="M 49.289062 20.78125 L 102.484375 8.015625 L 105.589844 20.953125 L 52.394531 33.722656 Z M 49.289062 20.78125 " clip-rule="nonzero"/></clipPath><clipPath id="0f71d2781e"><path d="M 49.289062 20.78125 L 102.484375 8.015625 L 105.589844 20.953125 L 52.394531 33.722656 Z M 49.289062 20.78125 " clip-rule="nonzero"/></clipPath><clipPath id="75f4278d1d"><path d="M 79 13 L 104 13 L 104 21 L 79 21 Z M 79 13 " clip-rule="nonzero"/></clipPath><clipPath id="c796df50a2"><path d="M 49.289062 20.78125 L 102.484375 8.015625 L 105.589844 20.953125 L 52.394531 33.722656 Z M 49.289062 20.78125 " clip-rule="nonzero"/></clipPath><clipPath id="995e976b07"><path d="M 49.289062 20.78125 L 102.484375 8.015625 L 105.589844 20.953125 L 52.394531 33.722656 Z M 49.289062 20.78125 " clip-rule="nonzero"/></clipPath><clipPath id="c26ee6cb9f"><path d="M 55 22 L 67 22 L 67 31 L 55 31 Z M 55 22 " clip-rule="nonzero"/></clipPath><clipPath id="c7f0a9ceac"><path d="M 49.289062 20.78125 L 102.484375 8.015625 L 105.589844 20.953125 L 52.394531 33.722656 Z M 49.289062 20.78125 " clip-rule="nonzero"/></clipPath><clipPath id="c4fa795825"><path d="M 49.289062 20.78125 L 102.484375 8.015625 L 105.589844 20.953125 L 52.394531 33.722656 Z M 49.289062 20.78125 " clip-rule="nonzero"/></clipPath></defs><path stroke-linecap="butt" transform="matrix(1.196334, 0, 0, 1.196334, 10.150937, 2.257937)" fill="none" stroke-linejoin="miter" d="M 12.033377 9.828098 L 8.226173 9.828098 L 7.501302 11.999445 L 5.192818 11.999445 L 9.117568 1.456167 L 11.128921 1.456167 L 15.076528 11.999445 L 12.764778 11.999445 Z M 8.810641 8.068164 L 11.448909 8.068164 L 10.123245 4.120557 Z M 20.614279 11.20274 C 20.09838 11.829655 19.383305 12.146378 18.469054 12.146378 C 17.629902 12.146378 16.989926 11.904755 16.549126 11.421507 C 16.105061 10.93826 15.879763 10.229715 15.869968 9.299138 L 15.869968 4.16627 L 17.96295 4.16627 L 17.96295 9.227304 C 17.96295 10.0436 18.335181 10.451748 19.079643 10.451748 C 19.788188 10.451748 20.2747 10.203594 20.542445 9.710551 L 20.542445 4.16627 L 22.641958 4.16627 L 22.641958 11.999445 L 20.673053 11.999445 Z M 26.723438 2.239811 L 26.723438 4.16627 L 28.065428 4.16627 L 28.065428 5.700906 L 26.723438 5.700906 L 26.723438 9.609331 C 26.723438 9.899932 26.778946 10.108904 26.889962 10.232981 C 27.000978 10.357058 27.213215 10.422361 27.526673 10.422361 C 27.758501 10.422361 27.964207 10.406035 28.143793 10.370118 L 28.143793 11.956998 C 27.732379 12.081075 27.311171 12.146378 26.876901 12.146378 C 25.407569 12.146378 24.659842 11.405182 24.630455 9.922788 L 24.630455 5.700906 L 23.487641 5.700906 L 23.487641 4.16627 L 24.630455 4.16627 L 24.630455 2.239811 Z M 26.723438 2.239811 " stroke="#ffffff" stroke-width="0.55623" stroke-opacity="1" stroke-miterlimit="4"/><g clip-path="url(#591174d54c)"><path stroke-linecap="round" transform="matrix(0.12622, 0, 0, 0.12622, 45.13075, 6.154126)" fill-opacity="1" fill="#ffffff" fill-rule="nonzero" stroke-linejoin="round" d="M 40.991585 1.007167 C 38.268155 1.007167 35.575673 1.2857 33.006983 1.811817 L 33.006983 8.00143 C 29.509852 8.837028 26.291253 10.198743 23.320238 11.993731 L 18.925612 7.630054 C 16.697351 9.115561 14.654779 10.848653 12.735999 12.736485 C 10.848166 14.655265 9.115075 16.697838 7.629567 18.926098 L 11.993245 23.320724 C 10.198257 26.291739 8.836542 29.510338 8.000944 33.00747 L 1.81133 33.00747 C 1.285213 35.576159 1.006681 38.268641 1.006681 40.992071 C 1.006681 43.746449 1.285213 46.407983 1.81133 49.007621 L 8.000944 49.007621 C 8.836542 52.473805 10.198257 55.723352 11.993245 58.694366 L 7.629567 63.058044 C 9.115075 65.317253 10.848166 67.359826 12.735999 69.247658 C 14.654779 71.13549 16.697351 72.89953 18.925612 74.385037 L 23.320238 69.990411 C 26.291253 71.816347 29.509852 73.147114 33.006983 74.01366 L 33.006983 80.172326 C 35.575673 80.698443 38.268155 81.007924 40.991585 81.007924 C 43.745963 81.007924 46.407497 80.698443 49.007135 80.172326 L 49.007135 74.01366 C 52.473318 73.147114 55.722866 71.816347 58.69388 69.990411 L 63.057558 74.385037 C 65.316767 72.89953 67.359339 71.13549 69.247171 69.247658 C 71.135004 67.359826 72.899044 65.317253 74.384551 63.058044 L 69.989925 58.694366 C 71.815861 55.723352 73.146628 52.473805 74.013174 49.007621 L 80.202788 49.007621 C 80.697957 46.407983 81.007437 43.746449 81.007437 40.992071 C 81.007437 38.268641 80.697957 35.576159 80.202788 33.00747 L 74.013174 33.00747 C 73.146628 29.510338 71.815861 26.291739 69.989925 23.320724 L 74.384551 18.926098 C 72.899044 16.697838 71.135004 14.655265 69.247171 12.736485 C 67.359339 10.848653 65.316767 9.115561 63.057558 7.630054 L 58.69388 11.993731 C 55.722866 10.198743 52.473318 8.837028 49.007135 8.00143 L 49.007135 1.811817 C 46.407497 1.2857 43.745963 1.007167 40.991585 1.007167 Z M 40.991585 20.999619 C 52.040045 20.999619 61.014985 29.974559 61.014985 40.992071 C 61.014985 52.040532 52.040045 61.015472 40.991585 61.015472 C 29.974073 61.015472 20.999133 52.040532 20.999133 40.992071 C 20.999133 29.974559 29.974073 20.999619 40.991585 20.999619 Z M 40.991585 20.999619 " stroke="#2c2c2c" stroke-width="2" stroke-opacity="1" stroke-miterlimit="4"/></g><g clip-path="url(#3bc9395ac3)"><g clip-path="url(#d9211fbc1d)"><g clip-path="url(#0f71d2781e)"><path fill="#ffffff" d="M 97.96875 20.460938 C 97.675781 20.667969 97.230469 20.957031 96.636719 21.261719 C 96.339844 21.417969 96 21.570312 95.628906 21.722656 C 95.253906 21.871094 94.84375 22.011719 94.398438 22.144531 C 93.503906 22.398438 92.464844 22.59375 91.3125 22.675781 C 90.15625 22.757812 88.890625 22.734375 87.546875 22.578125 C 86.875 22.5 86.183594 22.390625 85.480469 22.246094 C 85.394531 22.230469 85.304688 22.210938 85.21875 22.191406 C 85.128906 22.171875 85.039062 22.152344 84.953125 22.132812 C 84.777344 22.09375 84.59375 22.046875 84.414062 22 C 84.230469 21.957031 84.046875 21.914062 83.863281 21.867188 C 83.679688 21.816406 83.496094 21.765625 83.308594 21.714844 C 83.125 21.667969 82.9375 21.609375 82.75 21.554688 C 82.5625 21.5 82.371094 21.445312 82.179688 21.390625 C 81.800781 21.269531 81.414062 21.15625 81.023438 21.023438 C 80.246094 20.777344 79.445312 20.5 78.625 20.226562 C 77.804688 19.945312 76.957031 19.65625 76.089844 19.375 C 75.222656 19.089844 74.324219 18.8125 73.402344 18.554688 C 72.476562 18.296875 71.546875 18.070312 70.613281 17.882812 C 69.667969 17.695312 68.722656 17.558594 67.789062 17.476562 C 65.917969 17.316406 64.070312 17.371094 62.335938 17.679688 C 61.902344 17.753906 61.472656 17.851562 61.054688 17.957031 C 60.636719 18.070312 60.230469 18.1875 59.832031 18.328125 C 59.433594 18.464844 59.046875 18.621094 58.671875 18.785156 C 58.296875 18.957031 57.933594 19.136719 57.589844 19.332031 C 56.898438 19.722656 56.265625 20.164062 55.703125 20.636719 C 55.140625 21.105469 54.648438 21.617188 54.226562 22.128906 C 54.175781 22.195312 54.125 22.257812 54.074219 22.320312 L 53.996094 22.414062 L 53.921875 22.515625 C 53.828125 22.644531 53.734375 22.773438 53.644531 22.898438 C 53.554688 23.027344 53.472656 23.160156 53.390625 23.285156 C 53.347656 23.351562 53.304688 23.414062 53.269531 23.476562 C 53.230469 23.542969 53.195312 23.605469 53.15625 23.667969 C 52.855469 24.175781 52.625 24.675781 52.425781 25.144531 C 52.042969 26.09375 51.832031 26.941406 51.710938 27.632812 C 51.699219 27.71875 51.683594 27.804688 51.671875 27.886719 C 51.664062 27.925781 51.65625 27.96875 51.652344 28.007812 C 51.644531 28.046875 51.640625 28.085938 51.636719 28.125 C 51.621094 28.277344 51.601562 28.421875 51.589844 28.554688 C 51.566406 28.824219 51.554688 29.050781 51.546875 29.230469 C 51.546875 29.597656 51.546875 29.789062 51.546875 29.789062 C 51.546875 29.789062 51.601562 29.605469 51.707031 29.261719 C 51.765625 29.089844 51.839844 28.878906 51.929688 28.632812 C 51.980469 28.515625 52.03125 28.382812 52.089844 28.246094 C 52.101562 28.210938 52.117188 28.175781 52.128906 28.140625 C 52.144531 28.105469 52.164062 28.066406 52.179688 28.03125 C 52.210938 27.960938 52.246094 27.886719 52.28125 27.808594 C 52.5625 27.199219 52.949219 26.480469 53.484375 25.722656 C 53.757812 25.347656 54.058594 24.957031 54.410156 24.578125 C 54.453125 24.53125 54.496094 24.480469 54.542969 24.433594 C 54.585938 24.382812 54.632812 24.339844 54.679688 24.292969 C 54.773438 24.199219 54.867188 24.101562 54.960938 24.007812 C 55.0625 23.917969 55.164062 23.828125 55.265625 23.734375 L 55.339844 23.664062 L 55.421875 23.597656 C 55.476562 23.554688 55.527344 23.507812 55.582031 23.464844 C 56.019531 23.109375 56.488281 22.773438 57.011719 22.472656 C 57.535156 22.171875 58.101562 21.910156 58.703125 21.683594 C 59.003906 21.570312 59.316406 21.472656 59.636719 21.378906 C 59.957031 21.292969 60.285156 21.207031 60.621094 21.140625 C 60.957031 21.070312 61.304688 21.019531 61.65625 20.96875 C 62.007812 20.929688 62.367188 20.886719 62.734375 20.867188 C 64.199219 20.773438 65.761719 20.859375 67.375 21.09375 C 68.179688 21.210938 69 21.371094 69.828125 21.5625 C 70.664062 21.757812 71.515625 21.980469 72.382812 22.21875 C 73.253906 22.464844 74.117188 22.714844 74.980469 22.96875 C 75.84375 23.222656 76.699219 23.46875 77.554688 23.707031 C 78.414062 23.941406 79.261719 24.164062 80.113281 24.355469 C 80.535156 24.457031 80.960938 24.542969 81.378906 24.628906 C 81.589844 24.667969 81.800781 24.707031 82.007812 24.746094 C 82.21875 24.785156 82.425781 24.824219 82.632812 24.851562 C 82.84375 24.886719 83.050781 24.917969 83.257812 24.949219 C 83.460938 24.976562 83.671875 25 83.875 25.027344 C 84.078125 25.050781 84.28125 25.078125 84.488281 25.09375 C 84.589844 25.105469 84.691406 25.113281 84.796875 25.121094 C 84.898438 25.128906 85 25.136719 85.101562 25.144531 C 85.910156 25.199219 86.703125 25.210938 87.460938 25.179688 C 88.984375 25.113281 90.394531 24.890625 91.644531 24.546875 C 92.890625 24.207031 93.972656 23.746094 94.863281 23.253906 C 95.308594 23.003906 95.707031 22.746094 96.058594 22.492188 C 96.410156 22.238281 96.714844 21.988281 96.976562 21.75 C 97.5 21.277344 97.855469 20.863281 98.082031 20.578125 C 98.195312 20.4375 98.277344 20.324219 98.332031 20.25 C 98.386719 20.175781 98.417969 20.136719 98.417969 20.136719 C 98.417969 20.136719 98.378906 20.164062 98.300781 20.21875 C 98.226562 20.273438 98.117188 20.359375 97.96875 20.460938 " fill-opacity="1" fill-rule="nonzero"/></g></g></g><g clip-path="url(#75f4278d1d)"><g clip-path="url(#c796df50a2)"><g clip-path="url(#995e976b07)"><path fill="#ffffff" d="M 103.097656 13.332031 C 103.03125 13.386719 102.945312 13.453125 102.847656 13.53125 C 102.796875 13.570312 102.742188 13.613281 102.6875 13.660156 C 102.628906 13.703125 102.566406 13.75 102.5 13.800781 C 102.371094 13.898438 102.226562 14.007812 102.066406 14.125 C 101.90625 14.242188 101.726562 14.363281 101.539062 14.496094 C 101.355469 14.632812 101.144531 14.761719 100.929688 14.90625 C 100.714844 15.054688 100.480469 15.195312 100.234375 15.347656 C 100.175781 15.382812 100.113281 15.421875 100.050781 15.460938 C 99.988281 15.5 99.921875 15.535156 99.859375 15.570312 C 99.726562 15.648438 99.597656 15.722656 99.460938 15.800781 C 99.328125 15.882812 99.183594 15.953125 99.042969 16.027344 C 98.898438 16.105469 98.757812 16.183594 98.609375 16.261719 C 98.457031 16.335938 98.304688 16.410156 98.152344 16.488281 C 98.074219 16.523438 97.996094 16.566406 97.917969 16.601562 C 97.839844 16.640625 97.757812 16.675781 97.679688 16.710938 C 97.515625 16.785156 97.355469 16.863281 97.1875 16.9375 C 97.023438 17.007812 96.851562 17.078125 96.679688 17.152344 C 96.511719 17.226562 96.332031 17.289062 96.15625 17.359375 C 95.980469 17.425781 95.800781 17.503906 95.617188 17.5625 C 95.433594 17.628906 95.25 17.695312 95.0625 17.757812 C 94.875 17.820312 94.6875 17.878906 94.496094 17.941406 C 93.726562 18.175781 92.921875 18.390625 92.09375 18.566406 C 91.257812 18.734375 90.4375 18.859375 89.640625 18.945312 C 89.441406 18.964844 89.242188 18.984375 89.042969 19.003906 C 88.847656 19.019531 88.652344 19.03125 88.457031 19.046875 C 88.265625 19.0625 88.074219 19.0625 87.882812 19.070312 C 87.691406 19.078125 87.503906 19.089844 87.320312 19.089844 C 87.132812 19.089844 86.949219 19.09375 86.765625 19.09375 C 86.585938 19.09375 86.40625 19.085938 86.230469 19.082031 C 86.140625 19.082031 86.050781 19.078125 85.964844 19.078125 C 85.878906 19.074219 85.792969 19.066406 85.707031 19.0625 C 85.535156 19.054688 85.363281 19.046875 85.195312 19.039062 C 85.03125 19.027344 84.867188 19.011719 84.707031 18.996094 C 84.546875 18.984375 84.386719 18.976562 84.230469 18.953125 C 84.078125 18.9375 83.925781 18.917969 83.777344 18.902344 C 83.703125 18.894531 83.628906 18.886719 83.554688 18.875 C 83.484375 18.867188 83.410156 18.855469 83.339844 18.84375 C 83.054688 18.800781 82.78125 18.769531 82.527344 18.71875 C 82.273438 18.671875 82.027344 18.636719 81.804688 18.582031 C 81.578125 18.535156 81.367188 18.496094 81.175781 18.449219 C 80.980469 18.402344 80.804688 18.363281 80.644531 18.324219 C 80.566406 18.304688 80.492188 18.289062 80.421875 18.269531 C 80.351562 18.25 80.285156 18.230469 80.222656 18.214844 C 80.101562 18.183594 79.996094 18.15625 79.914062 18.132812 C 79.746094 18.089844 79.65625 18.066406 79.65625 18.066406 C 79.65625 18.066406 79.734375 18.113281 79.878906 18.207031 C 79.953125 18.253906 80.046875 18.308594 80.15625 18.375 C 80.210938 18.410156 80.269531 18.445312 80.332031 18.484375 C 80.394531 18.523438 80.464844 18.558594 80.535156 18.597656 C 80.683594 18.679688 80.84375 18.769531 81.023438 18.863281 C 81.203125 18.957031 81.402344 19.050781 81.617188 19.15625 C 81.828125 19.261719 82.0625 19.355469 82.3125 19.460938 C 82.558594 19.570312 82.828125 19.664062 83.113281 19.765625 C 83.183594 19.792969 83.253906 19.820312 83.324219 19.84375 C 83.398438 19.871094 83.472656 19.894531 83.546875 19.917969 C 83.699219 19.964844 83.851562 20.011719 84.007812 20.0625 C 84.167969 20.113281 84.328125 20.148438 84.496094 20.195312 C 84.660156 20.238281 84.832031 20.28125 85.003906 20.324219 C 85.175781 20.359375 85.355469 20.398438 85.535156 20.4375 C 85.625 20.453125 85.714844 20.472656 85.808594 20.492188 C 85.898438 20.507812 85.992188 20.519531 86.085938 20.535156 C 86.273438 20.566406 86.464844 20.597656 86.65625 20.625 C 86.851562 20.648438 87.050781 20.671875 87.25 20.691406 C 87.449219 20.71875 87.652344 20.726562 87.855469 20.742188 C 88.0625 20.753906 88.269531 20.769531 88.480469 20.773438 C 88.695312 20.773438 88.90625 20.777344 89.121094 20.78125 C 89.339844 20.773438 89.554688 20.769531 89.773438 20.761719 C 90.652344 20.71875 91.5625 20.613281 92.476562 20.429688 C 93.394531 20.234375 94.269531 19.972656 95.089844 19.660156 C 95.292969 19.582031 95.496094 19.5 95.699219 19.421875 C 95.894531 19.332031 96.089844 19.246094 96.28125 19.15625 C 96.472656 19.074219 96.660156 18.972656 96.84375 18.882812 C 97.027344 18.785156 97.207031 18.699219 97.382812 18.59375 C 97.554688 18.496094 97.726562 18.394531 97.898438 18.296875 C 98.066406 18.199219 98.226562 18.089844 98.386719 17.988281 C 98.46875 17.9375 98.546875 17.886719 98.625 17.835938 C 98.703125 17.785156 98.777344 17.730469 98.855469 17.679688 C 99.003906 17.570312 99.152344 17.46875 99.296875 17.363281 C 99.4375 17.257812 99.574219 17.148438 99.710938 17.042969 C 99.847656 16.9375 99.980469 16.839844 100.105469 16.730469 C 100.226562 16.621094 100.351562 16.515625 100.46875 16.414062 C 100.53125 16.363281 100.589844 16.3125 100.644531 16.261719 C 100.703125 16.207031 100.757812 16.15625 100.8125 16.101562 C 101.03125 15.894531 101.238281 15.703125 101.421875 15.503906 C 101.609375 15.308594 101.789062 15.128906 101.941406 14.945312 C 102.097656 14.765625 102.242188 14.601562 102.371094 14.445312 C 102.496094 14.285156 102.609375 14.140625 102.710938 14.007812 C 102.761719 13.941406 102.8125 13.882812 102.855469 13.820312 C 102.898438 13.761719 102.9375 13.707031 102.972656 13.652344 C 103.046875 13.546875 103.109375 13.460938 103.15625 13.386719 C 103.253906 13.246094 103.308594 13.167969 103.308594 13.167969 C 103.308594 13.167969 103.234375 13.226562 103.097656 13.332031 " fill-opacity="1" fill-rule="nonzero"/></g></g></g><g clip-path="url(#c26ee6cb9f)"><g clip-path="url(#c7f0a9ceac)"><g clip-path="url(#c4fa795825)"><path fill="#ffffff" d="M 66.300781 22.8125 C 65.898438 22.699219 65.308594 22.558594 64.558594 22.460938 C 64.183594 22.414062 63.769531 22.382812 63.320312 22.371094 C 63.207031 22.371094 63.09375 22.371094 62.976562 22.371094 C 62.917969 22.371094 62.859375 22.371094 62.800781 22.371094 C 62.738281 22.375 62.679688 22.378906 62.621094 22.378906 C 62.5 22.386719 62.378906 22.394531 62.253906 22.402344 C 62.128906 22.414062 62.003906 22.429688 61.875 22.441406 C 61.367188 22.503906 60.828125 22.601562 60.285156 22.773438 C 59.738281 22.941406 59.183594 23.167969 58.648438 23.46875 C 57.554688 24.082031 56.710938 24.953125 56.136719 25.851562 C 55.5625 26.75 55.265625 27.6875 55.171875 28.472656 C 55.121094 28.867188 55.121094 29.222656 55.148438 29.53125 C 55.171875 29.839844 55.222656 30.101562 55.277344 30.308594 C 55.289062 30.359375 55.300781 30.40625 55.316406 30.453125 C 55.328125 30.5 55.34375 30.539062 55.355469 30.578125 C 55.367188 30.617188 55.378906 30.652344 55.390625 30.6875 C 55.402344 30.71875 55.414062 30.746094 55.425781 30.773438 C 55.464844 30.875 55.488281 30.929688 55.488281 30.929688 C 55.488281 30.929688 55.492188 30.871094 55.503906 30.761719 C 55.507812 30.734375 55.511719 30.703125 55.515625 30.671875 C 55.519531 30.636719 55.523438 30.601562 55.53125 30.5625 C 55.535156 30.523438 55.542969 30.480469 55.546875 30.4375 C 55.554688 30.394531 55.5625 30.34375 55.574219 30.296875 C 55.644531 29.898438 55.792969 29.339844 56.085938 28.730469 C 56.382812 28.117188 56.824219 27.449219 57.414062 26.824219 C 58.003906 26.195312 58.742188 25.597656 59.582031 25.125 C 60.449219 24.644531 61.339844 24.28125 62.203125 24.011719 C 62.3125 23.980469 62.417969 23.945312 62.523438 23.914062 C 62.632812 23.882812 62.738281 23.855469 62.839844 23.824219 C 62.894531 23.808594 62.945312 23.796875 62.996094 23.78125 C 63.046875 23.765625 63.101562 23.753906 63.152344 23.742188 C 63.253906 23.714844 63.355469 23.6875 63.453125 23.664062 C 63.855469 23.570312 64.234375 23.480469 64.585938 23.414062 C 65.289062 23.273438 65.878906 23.175781 66.285156 23.109375 C 66.488281 23.074219 66.648438 23.046875 66.757812 23.03125 C 66.867188 23.011719 66.921875 23 66.921875 23 C 66.921875 23 66.867188 22.984375 66.761719 22.949219 C 66.65625 22.917969 66.503906 22.863281 66.300781 22.8125 " fill-opacity="1" fill-rule="nonzero"/></g></g></g><path stroke-linecap="butt" transform="matrix(1.10798, 0, 0, 1.10798, 55.545761, -1.555504)" fill="none" stroke-linejoin="miter" d="M 9.8761 12.717433 L 11.406193 4.626272 L 13.743639 4.626272 L 11.219338 15.999729 L 8.860738 15.999729 L 7.006294 8.39157 L 5.155374 15.999729 L 2.796775 15.999729 L 0.272473 4.626272 L 2.60992 4.626272 L 4.147064 12.70333 L 6.022662 4.626272 L 8.007553 4.626272 Z M 19.758245 15.999729 C 19.652478 15.795247 19.578442 15.544932 19.532609 15.241734 C 18.982622 15.851656 18.273984 16.154854 17.399645 16.154854 C 16.571139 16.154854 15.883654 15.915116 15.340718 15.439165 C 14.794256 14.959689 14.522788 14.353293 14.522788 13.623502 C 14.522788 12.728009 14.854191 12.040525 15.520522 11.561049 C 16.183327 11.081573 17.142279 10.841835 18.397379 10.834783 L 19.437419 10.834783 L 19.437419 10.351782 C 19.437419 9.960445 19.338704 9.650195 19.137747 9.413983 C 18.93679 9.181296 18.619489 9.061427 18.185845 9.061427 C 17.80861 9.061427 17.508938 9.153091 17.293879 9.33642 C 17.075294 9.519749 16.969527 9.766539 16.969527 10.087365 L 14.709643 10.087365 C 14.709643 9.597312 14.861242 9.142515 15.16444 8.726498 C 15.467638 8.310482 15.894231 7.982605 16.444219 7.746393 C 16.997731 7.51018 17.61823 7.390311 18.305714 7.390311 C 19.345755 7.390311 20.174261 7.651203 20.784183 8.176511 C 21.397631 8.698294 21.704354 9.435136 21.704354 10.383512 L 21.704354 14.046569 C 21.70788 14.850397 21.820698 15.456793 22.039283 15.865758 L 22.039283 15.999729 Z M 17.889698 14.430855 C 18.224626 14.430855 18.53135 14.356818 18.813395 14.208745 C 19.09544 14.057146 19.303448 13.859714 19.437419 13.609399 L 19.437419 12.156869 L 18.59481 12.156869 C 17.463105 12.156869 16.860235 12.548206 16.789723 13.327355 L 16.782672 13.461326 C 16.782672 13.743371 16.881388 13.972532 17.078819 14.155861 C 17.276251 14.33919 17.547719 14.430855 17.889698 14.430855 Z M 26.601358 13.242741 L 28.170232 7.545436 L 30.532357 7.545436 L 27.680179 15.999729 L 25.522536 15.999729 L 22.670358 7.545436 L 25.032483 7.545436 Z M 35.415259 16.154854 C 34.174261 16.154854 33.165951 15.777619 32.386802 15.016098 C 31.607653 14.254577 31.219842 13.242741 31.219842 11.977065 L 31.219842 11.75848 C 31.219842 10.90882 31.382018 10.150825 31.709895 9.480968 C 32.037772 8.811112 32.503146 8.29638 33.106017 7.933247 C 33.705362 7.570115 34.392846 7.390311 35.164944 7.390311 C 36.321328 7.390311 37.230922 7.756969 37.893727 8.483235 C 38.560058 9.213026 38.891461 10.246015 38.891461 11.585728 L 38.891461 12.509425 L 33.50793 12.509425 C 33.581967 13.059412 33.800552 13.503633 34.16721 13.835035 C 34.533868 14.169964 34.999242 14.335665 35.563332 14.335665 C 36.43062 14.335665 37.111053 14.02189 37.601106 13.390815 L 38.711657 14.631812 C 38.373204 15.111288 37.914881 15.484998 37.336689 15.75294 C 36.758497 16.020883 36.116845 16.154854 35.415259 16.154854 Z M 35.157893 9.220077 C 34.706621 9.220077 34.343488 9.36815 34.064969 9.671349 C 33.78645 9.974547 33.610172 10.404665 33.532609 10.968755 L 36.670358 10.968755 L 36.670358 10.788951 C 36.659781 10.288322 36.52581 9.904036 36.264919 9.629042 C 36.004027 9.354048 35.633843 9.220077 35.157893 9.220077 Z M 35.157893 9.220077 " stroke="#ffffff" stroke-width="0.6" stroke-opacity="1" stroke-miterlimit="4"/></svg>