<svg xmlns="http://www.w3.org/2000/svg" xmlns:xlink="http://www.w3.org/1999/xlink" width="500" zoomAndPan="magnify" viewBox="0 0 375 374.999991" height="500" preserveAspectRatio="xMidYMid meet" version="1.0"><defs><clipPath id="040d7ed356"><path d="M 111.113281 127.300781 L 120.871094 127.300781 L 120.871094 246.9375 L 111.113281 246.9375 Z M 111.113281 127.300781 " clip-rule="nonzero"/></clipPath></defs><g clip-path="url(#040d7ed356)"><path fill="#ffffff" d="M 120.871094 127.300781 L 120.871094 246.957031 L 111.113281 246.957031 L 111.113281 127.300781 Z M 120.871094 127.300781 " fill-opacity="1" fill-rule="nonzero"/></g><path stroke-linecap="round" transform="matrix(4.579744, 0, 0, 4.579744, -0.549662, 0)" fill-opacity="1" fill="#271a75" fill-rule="nonzero" stroke-linejoin="round" d="M 40.999757 0.999646 C 38.260965 0.999646 35.584437 1.287087 33.000027 1.812499 L 33.000027 7.99973 C 29.525147 8.839023 26.280561 10.184964 23.312328 12.000021 L 18.937596 7.625289 C 16.695215 9.111111 14.645598 10.854522 12.750364 12.749756 C 10.854278 14.64499 9.110867 16.694606 7.625044 18.93784 L 11.999777 23.312572 C 10.184719 26.279953 8.838779 29.525392 8.000338 33.000272 L 1.812254 33.000272 C 1.286843 35.584682 1.000255 38.261209 1.000255 41.000001 C 1.000255 43.738794 1.286843 46.415321 1.812254 48.999731 L 8.000338 48.999731 C 8.838779 52.474611 10.184719 55.72005 11.999777 58.687431 L 7.625044 63.062163 C 9.110867 65.305397 10.854278 67.355013 12.750364 69.250247 C 14.645598 71.145481 16.695215 72.888892 18.937596 74.374714 L 23.312328 69.999982 C 26.280561 71.815039 29.525147 73.16098 33.000027 74.000273 L 33.000027 80.187504 C 35.584437 80.712916 38.260965 81.000357 40.999757 81.000357 C 43.739402 81.000357 46.415077 80.712916 49.00034 80.187504 L 49.00034 74.000273 C 52.47522 73.16098 55.719806 71.815039 58.687186 69.999982 L 63.062771 74.374714 C 65.305152 72.888892 67.354768 71.145481 69.250002 69.250247 C 71.145236 67.355013 72.888647 65.305397 74.375322 63.062163 L 69.999737 58.687431 C 71.815648 55.72005 73.160735 52.474611 74.000029 48.999731 L 80.18726 48.999731 C 80.712671 46.415321 81.000112 43.738794 81.000112 41.000001 C 81.000112 38.261209 80.712671 35.584682 80.18726 33.000272 L 74.000029 33.000272 C 73.160735 29.525392 71.815648 26.279953 69.999737 23.312572 L 74.375322 18.93784 C 72.888647 16.694606 71.145236 14.64499 69.250002 12.749756 C 67.354768 10.854522 65.305152 9.111111 63.062771 7.625289 L 58.687186 12.000021 C 55.719806 10.184964 52.47522 8.839023 49.00034 7.99973 L 49.00034 1.812499 C 46.415077 1.287087 43.739402 0.999646 40.999757 0.999646 Z M 40.999757 21.00025 C 52.04022 21.00025 61.000361 29.960391 61.000361 41.000001 C 61.000361 52.039612 52.04022 60.999753 40.999757 60.999753 C 29.960147 60.999753 21.000006 52.039612 21.000006 41.000001 C 21.000006 29.960391 29.960147 21.00025 40.999757 21.00025 Z M 40.999757 21.00025 " stroke="#2c2c2c" stroke-width="2" stroke-opacity="1" stroke-miterlimit="4"/></svg>