<svg width="42" height="46" viewBox="0 0 42 46" fill="none" xmlns="http://www.w3.org/2000/svg">
<g id="Layer_1" clip-path="url(#clip0_572_2116)">
<path id="Vector" d="M24.2663 18.3853C23.3604 19.0845 22.2221 19.5022 20.9814 19.4985C18.1206 19.4893 15.7565 17.1985 15.6914 14.3686C15.6226 11.4117 18.0258 8.99392 21 8.99392C23.9742 8.99392 26.3104 11.3454 26.3104 14.2471C26.3104 14.4937 26.2919 14.7366 26.2584 14.9758L42.0019 23.966V14.6924C42.0019 12.4108 40.7724 10.304 38.7747 9.1632L24.2272 0.8556C22.2295 -0.2852 19.7705 -0.2852 17.7728 0.8556L3.22719 9.1632C1.2295 10.304 0 12.4108 0 14.6924V17.4855L17.7337 27.6147C18.6396 26.9155 19.7779 26.4978 21.0186 26.5015C23.8794 26.5107 26.2435 28.8015 26.3086 31.6314C26.3774 34.5883 23.9742 37.0061 21 37.0061C18.0258 37.0061 15.6895 34.6546 15.6895 31.7529C15.6895 31.5063 15.7081 31.2634 15.7416 31.0242L0 22.034V31.3076C0 33.5892 1.2295 35.696 3.22719 36.8368L17.7728 45.1444C19.7705 46.2852 22.2295 46.2852 24.2272 45.1444L38.7728 36.8368C40.7705 35.696 42 33.5892 42 31.3076V28.5145L24.2663 18.3853Z" fill="white"/>
</g>
<defs>
<clipPath id="clip0_572_2116">
<rect width="42" height="46" fill="white"/>
</clipPath>
</defs>
</svg>
